<svg xmlns="http://www.w3.org/2000/svg" version="1.1" xmlns:xlink="http://www.w3.org/1999/xlink"
  xmlns:svgjs="http://svgjs.com/svgjs" width="1000" height="1000">
  <rect width="1000" height="1000" rx="250" ry="250" fill="#476da1"></rect>
  <g transform="matrix(16.666666666666668,0,0,16.666666666666668,99.99994023640949,99.99997011820471)"><svg
      xmlns="http://www.w3.org/2000/svg" version="1.1" xmlns:xlink="http://www.w3.org/1999/xlink"
      xmlns:svgjs="http://svgjs.com/svgjs" width="48" height="48"><svg width="48" height="48"
        xmlns="http://www.w3.org/2000/svg" fill="white">
        <path id="svg_2"
          d="m40.69893,33.67679l-0.04169,-19.3922l-16.69315,-9.72904l-16.66301,9.69385l0.04061,19.54399l16.6224,9.65107l16.73484,-9.76766zm-15.04141,4.87183l0.02978,-13.57774l11.60276,-6.7784l0.02978,13.54796l-11.66232,6.80818zm-1.69577,-30.0868l11.65943,6.79645l-11.61991,6.78706l-11.65979,-6.82208l11.62027,-6.76144zm-13.27544,9.70431l11.62478,6.8024l-0.0296,13.59633l-11.56721,-6.71686l-0.02797,-13.68187z">
        </path>
      </svg></svg></g>
</svg>