<?xml version="1.0" standalone="no"?>
<!DOCTYPE svg PUBLIC "-//W3C//DTD SVG 20010904//EN"
 "http://www.w3.org/TR/2001/REC-SVG-20010904/DTD/svg10.dtd">
<svg version="1.0" xmlns="http://www.w3.org/2000/svg"
 width="475.000000pt" height="644.000000pt" viewBox="0 0 475.000000 644.000000"
 preserveAspectRatio="xMidYMid meet">

<g transform="translate(0.000000,644.000000) scale(0.100000,-0.100000)"
fill="#000000" stroke="none">
<path d="M3805 6394 c-52 -13 -104 -39 -142 -70 l-41 -34 -44 20 c-57 26 -171
26 -345 1 -278 -41 -285 -49 -320 -356 -15 -129 -11 -186 16 -224 13 -18 72
-65 130 -103 58 -38 107 -71 108 -72 1 -1 -38 -19 -88 -40 -110 -47 -168 -100
-199 -184 -33 -87 -37 -181 -11 -282 11 -46 21 -87 21 -91 0 -3 -26 2 -57 13
-155 51 -329 73 -502 65 -260 -13 -553 -118 -725 -262 -218 -181 -357 -420
-411 -705 -23 -121 -24 -344 -1 -446 47 -216 110 -329 340 -611 215 -264 276
-376 276 -508 0 -116 -82 -232 -243 -346 -166 -117 -292 -159 -475 -159 -228
1 -372 70 -441 213 -74 150 -42 338 99 599 93 171 104 205 104 308 0 72 -4 94
-28 148 -16 34 -27 64 -25 66 8 7 154 93 222 130 39 22 72 47 76 60 11 28 17
354 8 383 -6 17 -43 35 -162 82 -200 79 -222 80 -435 12 -248 -78 -330 -115
-330 -150 0 -12 -14 -26 -37 -38 -44 -21 -87 -81 -102 -140 -17 -64 -14 -202
5 -258 24 -70 78 -117 171 -149 155 -53 203 -78 257 -130 29 -28 59 -62 68
-76 25 -39 28 -20 8 40 -14 41 -32 68 -73 105 -53 51 -85 66 -206 101 -84 24
-143 63 -165 108 -44 94 -41 242 7 328 18 33 51 57 62 46 2 -2 8 -69 13 -149
7 -111 13 -153 27 -177 18 -30 192 -152 285 -199 60 -30 80 -29 180 12 46 19
89 35 96 35 25 0 64 -116 64 -190 0 -66 -14 -105 -70 -200 -83 -141 -158 -299
-186 -398 -22 -80 -26 -108 -22 -191 3 -85 8 -106 36 -163 38 -78 110 -149
186 -184 261 -119 581 -71 838 128 130 101 204 218 217 346 18 179 -28 284
-266 602 -177 238 -231 334 -278 495 -79 276 -43 568 105 843 142 264 370 438
679 519 80 21 126 26 281 30 202 6 286 -4 450 -53 281 -85 573 -296 725 -524
210 -316 190 -737 -53 -1105 -53 -80 -232 -263 -342 -350 -188 -149 -303 -289
-362 -441 -36 -94 -32 -115 9 -43 63 110 137 182 458 449 252 209 381 387 466
642 78 236 71 512 -20 728 -97 231 -378 510 -637 634 -43 20 -86 41 -94 45
-36 19 -62 215 -40 298 38 139 118 229 243 273 l52 19 75 -41 c111 -60 110
-58 56 -108 -54 -50 -106 -148 -106 -200 0 -51 37 -155 78 -220 47 -74 133
-187 267 -350 202 -246 295 -397 347 -565 102 -328 46 -649 -173 -985 -34 -52
-64 -97 -68 -100 -3 -3 -33 -39 -65 -80 -123 -155 -274 -318 -494 -534 -51
-50 -88 -92 -82 -94 26 -9 513 461 665 643 244 291 348 538 347 825 0 228 -68
451 -197 652 -67 103 -106 149 -306 355 -97 100 -195 209 -217 242 -42 63 -75
153 -76 207 0 45 47 118 115 174 53 44 62 48 86 39 20 -8 60 -2 182 26 189 44
304 76 365 104 45 19 58 37 70 91 3 14 23 44 45 68 64 70 104 164 109 252 4
90 -14 152 -79 265 -60 105 -100 149 -164 180 -53 25 -148 39 -190 29z m90
-38 c109 -29 167 -83 235 -222 37 -73 43 -95 47 -167 4 -72 2 -87 -19 -127
-36 -69 -43 -61 -40 45 3 88 2 96 -20 116 -13 12 -111 71 -218 131 -107 60
-204 118 -214 128 -20 19 -20 20 0 41 24 26 62 47 111 58 53 13 62 12 118 -3z
m-285 -123 c47 -28 160 -95 252 -149 92 -54 165 -101 163 -103 -5 -4 -68 -16
-313 -58 l-164 -27 -36 20 c-148 84 -202 117 -312 193 -69 47 -138 92 -153
100 -15 8 -25 16 -24 18 6 5 215 42 297 52 41 5 104 8 140 7 58 -2 74 -7 150
-53z m-565 -73 c22 -13 87 -56 145 -95 58 -39 132 -86 165 -104 133 -74 166
-118 146 -196 -6 -25 -16 -105 -23 -178 -6 -72 -12 -134 -14 -136 -4 -5 -121
61 -192 108 -31 21 -100 62 -152 91 -52 30 -114 73 -138 97 l-43 43 6 63 c22
223 40 341 54 335 3 -2 24 -14 46 -28z m-2243 -2171 c35 -12 101 -39 147 -61
97 -44 97 -49 -4 -87 -33 -13 -79 -32 -102 -42 -24 -10 -45 -19 -48 -19 -2 0
-53 -23 -111 -52 l-107 -52 -46 27 c-25 14 -99 55 -163 89 -65 35 -118 65
-118 69 0 15 397 148 447 148 24 1 71 -9 105 -20z m258 -282 c0 -166 8 -150
-115 -220 -44 -24 -132 -74 -196 -110 -64 -36 -128 -69 -143 -73 l-26 -6 0
170 c0 124 3 172 13 180 6 6 37 20 67 32 30 12 114 49 185 82 190 88 189 88
203 88 9 0 12 -35 12 -143z"/>
<path d="M2035 3251 c-19 -8 -18 -9 5 -12 20 -3 26 -10 28 -39 4 -40 24 -60
62 -60 27 0 60 27 60 48 0 38 50 -9 82 -77 83 -178 -148 -375 -312 -267 -51
34 -72 76 -78 156 -4 58 -1 71 27 124 35 65 35 84 2 37 -37 -51 -51 -98 -51
-165 0 -140 72 -215 207 -217 148 -2 257 104 257 251 0 95 -44 169 -126 211
-39 20 -125 25 -163 10z"/>
<path d="M2535 3170 c-3 -5 -1 -10 5 -10 6 0 10 -8 9 -17 -5 -31 12 -63 36
-69 41 -10 69 0 83 29 l14 29 25 -24 c46 -43 66 -95 60 -159 -11 -129 -83
-199 -211 -206 -65 -4 -75 -2 -117 25 -39 25 -50 39 -64 82 -25 75 -16 155 24
220 33 53 26 70 -9 21 -32 -45 -50 -108 -50 -171 0 -148 76 -216 233 -209 102
6 159 41 202 124 25 48 30 70 30 124 -1 98 -40 158 -130 201 -42 21 -130 27
-140 10z"/>
<path d="M3990 2934 c-158 -34 -298 -149 -350 -288 -13 -34 -21 -42 -53 -49
-21 -5 -42 -18 -49 -30 -13 -25 -2 -350 13 -378 17 -33 111 -92 212 -134 56
-24 127 -54 157 -69 77 -36 115 -33 255 23 66 26 121 45 123 41 5 -12 -47 -97
-89 -144 -29 -33 -67 -59 -132 -91 -116 -57 -198 -78 -312 -79 l-89 -1 -36 66
c-63 119 -127 189 -242 265 -195 128 -379 166 -520 105 -51 -21 -112 -87 -129
-139 -16 -47 -7 -133 17 -164 42 -57 120 -89 178 -74 17 4 36 23 54 56 l29 50
26 -20 c40 -32 156 -89 194 -96 40 -8 56 -30 73 -103 15 -62 8 -133 -16 -184
l-18 -37 -75 0 c-250 1 -501 137 -582 317 -40 88 -69 198 -69 265 0 32 -4 58
-10 58 -5 0 -10 -16 -10 -36 0 -19 -11 -54 -24 -77 -104 -181 -113 -419 -21
-582 42 -75 141 -173 220 -216 54 -30 69 -34 157 -37 111 -5 200 16 294 70
211 118 286 344 182 540 -54 101 -230 247 -285 236 -11 -2 4 -16 43 -40 58
-36 134 -104 134 -120 0 -16 -137 61 -190 106 -30 25 -57 46 -62 46 -11 0 -10
-18 2 -25 17 -10 11 -78 -9 -112 -36 -58 -104 -56 -163 5 -45 46 -54 79 -37
139 19 69 80 128 147 142 112 23 175 11 329 -66 183 -90 283 -189 346 -339 71
-168 59 -392 -30 -543 -58 -99 -172 -197 -287 -246 l-65 -28 -98 43 c-54 24
-134 61 -177 82 -48 23 -94 38 -115 38 -20 -1 -76 -17 -126 -36 -49 -20 -111
-41 -137 -47 -44 -10 -49 -9 -88 18 -23 16 -65 56 -94 89 -50 58 -136 178
-136 191 0 3 -16 29 -35 58 -54 82 -70 168 -70 382 0 211 11 259 92 381 36 55
-7 39 -107 -41 -94 -75 -123 -136 -128 -270 -3 -87 1 -120 31 -250 54 -233 69
-333 65 -432 -6 -144 -58 -232 -186 -316 -123 -80 -234 -100 -402 -72 -124 20
-242 56 -323 97 -85 42 -230 146 -322 229 -164 147 -252 200 -338 202 -55 1
-93 -22 -120 -74 -34 -65 1 -153 90 -223 60 -47 93 -90 93 -123 0 -20 -36 -84
-54 -95 -24 -16 -94 -7 -144 18 -56 28 -142 115 -173 175 -75 147 -43 332 79
457 55 56 115 88 196 103 112 20 200 -14 426 -166 278 -186 413 -232 610 -205
141 19 235 81 282 184 21 46 23 65 22 181 -1 87 -9 169 -24 250 -27 145 -36
277 -21 331 35 130 226 287 374 308 27 4 47 10 44 13 -12 12 -144 -18 -204
-47 -82 -38 -216 -168 -259 -250 -25 -49 -28 -66 -29 -153 -1 -53 -5 -101 -11
-107 -26 -26 -191 -111 -259 -134 -88 -30 -228 -59 -360 -77 -244 -32 -480 39
-641 193 -109 105 -145 226 -125 427 18 184 66 340 154 495 48 85 79 156 74
170 -2 6 -12 -5 -22 -24 -10 -19 -45 -80 -78 -135 -113 -186 -170 -351 -189
-546 -22 -214 21 -350 147 -468 72 -67 140 -105 285 -159 90 -34 103 -36 245
-40 124 -3 167 0 252 17 149 31 273 74 411 142 67 34 125 60 128 57 7 -7 34
-243 34 -298 0 -73 -19 -121 -64 -166 -51 -51 -137 -85 -231 -91 -61 -5 -83
-1 -165 27 -123 42 -211 87 -335 170 -187 126 -287 164 -421 161 -45 0 -102
-7 -128 -15 -116 -35 -225 -144 -272 -272 -24 -65 -26 -84 -22 -177 3 -96 6
-109 41 -180 21 -42 59 -99 86 -126 51 -52 143 -105 205 -116 78 -15 177 53
192 131 14 73 -17 123 -125 204 -41 31 -81 98 -81 137 0 46 60 93 120 93 60 0
176 -75 300 -195 166 -160 278 -244 415 -311 172 -84 228 -98 375 -92 134 6
202 28 324 108 144 94 206 210 206 388 0 45 3 82 6 82 3 0 49 -41 102 -90 52
-50 117 -105 144 -123 26 -17 48 -35 48 -40 0 -4 -12 -12 -27 -18 -14 -5 -32
-17 -39 -27 -16 -21 -17 -106 -4 -225 11 -95 24 -129 67 -175 65 -68 550 -402
585 -402 23 0 395 228 439 269 27 26 28 27 34 186 3 88 2 165 -2 171 -4 6 -57
36 -118 68 -60 31 -121 65 -135 75 -24 19 -24 20 -5 27 11 3 53 22 92 41 114
55 242 202 299 343 13 30 29 58 36 62 7 3 64 11 125 17 171 17 421 94 538 165
28 16 83 57 123 90 121 99 201 256 220 428 14 121 16 582 3 606 -7 13 -30 24
-63 32 -73 17 -83 24 -164 100 -81 77 -150 114 -249 135 -86 18 -160 18 -245
-1z m261 -43 c74 -28 185 -107 238 -168 97 -113 151 -288 152 -493 1 -180 -30
-307 -104 -423 -66 -102 -180 -192 -342 -268 -124 -58 -347 -124 -445 -131
l-44 -3 -2 132 c-2 152 -8 143 108 143 279 0 508 170 573 425 23 90 21 236 -5
310 -27 81 -98 182 -158 228 -90 68 -220 96 -287 61 -30 -16 -238 -84 -256
-84 -20 0 -7 59 22 103 63 95 171 167 279 186 83 15 206 6 271 -18z m-115
-233 c27 -18 73 -57 103 -86 65 -65 70 -59 -112 -127 l-127 -48 -183 72 c-221
88 -232 93 -215 101 7 4 67 19 133 34 66 15 158 41 205 57 109 37 135 36 196
-3z m509 8 c18 -13 18 -14 -2 -24 -18 -10 -23 -8 -37 13 -15 23 -15 25 2 25
10 0 27 -6 37 -14z m33 -124 c-4 -27 -4 -27 -21 10 -22 48 -21 66 1 70 18 4
27 -29 20 -80z m-355 -107 c40 -84 43 -240 4 -298 -14 -21 -274 -129 -294
-122 -10 3 -13 46 -13 168 0 115 4 168 13 180 9 12 213 93 268 106 3 0 13 -15
22 -34z m-2133 -349 c0 -2 -16 -30 -35 -62 -39 -64 -68 -148 -87 -249 -6 -35
-14 -62 -18 -60 -14 8 -18 100 -8 155 5 30 19 72 30 93 29 57 118 150 118 123z
m358 -158 c2 -24 12 -82 23 -130 32 -137 103 -240 211 -305 66 -40 244 -98
348 -114 44 -7 80 -15 80 -19 0 -12 -88 -70 -147 -98 -51 -23 -71 -26 -163
-27 -98 0 -110 2 -173 32 -181 86 -288 300 -260 515 12 84 55 204 71 194 4 -2
9 -24 10 -48z m338 -903 c33 -25 207 -115 429 -220 l120 -57 -40 -20 c-22 -11
-100 -54 -174 -95 l-135 -75 -40 21 c-23 12 -68 37 -101 57 -33 19 -123 66
-200 106 -131 66 -285 162 -285 177 0 4 73 31 163 60 89 29 166 57 172 62 17
16 58 9 91 -16z m-354 -201 c46 -30 97 -62 113 -70 17 -8 59 -32 95 -54 36
-22 116 -67 177 -100 161 -86 153 -73 153 -257 0 -84 -4 -153 -9 -153 -16 0
-134 70 -191 113 -58 44 -197 137 -205 137 -3 0 -13 6 -22 14 -10 8 -56 43
-103 79 -96 72 -91 59 -105 250 -4 64 -3 97 3 97 6 0 48 -25 94 -56z"/>
</g>
</svg>
